<mxfile host="app.diagrams.net" modified="2022-07-11T09:21:01.459Z" agent="5.0 (Windows NT 10.0; WOW64) AppleWebKit/537.36 (KHTML, like Gecko) Chrome/75.0.3770.100 Safari/537.36" etag="h2k_-Gyt3l0YOuiXnVXR" version="20.0.4" type="github">
  <diagram id="rRMV11OjBoE4cVljN-CH" name="4A对外提供表或视图">
    <mxGraphModel dx="1038" dy="576" grid="1" gridSize="10" guides="1" tooltips="1" connect="1" arrows="1" fold="1" page="1" pageScale="1" pageWidth="827" pageHeight="1169" math="0" shadow="0">
      <root>
        <mxCell id="0" />
        <mxCell id="1" parent="0" />
        <mxCell id="Xlu8h9oqPwn0RZzRxIoK-1" value="流程平台" style="swimlane;startSize=20;horizontal=1;containerType=tree;" vertex="1" parent="1">
          <mxGeometry x="60" y="150" width="521" height="320" as="geometry" />
        </mxCell>
        <mxCell id="Xlu8h9oqPwn0RZzRxIoK-2" value="" style="edgeStyle=elbowEdgeStyle;elbow=vertical;startArrow=none;endArrow=none;rounded=0;" edge="1" parent="Xlu8h9oqPwn0RZzRxIoK-1" source="Xlu8h9oqPwn0RZzRxIoK-3" target="Xlu8h9oqPwn0RZzRxIoK-4">
          <mxGeometry relative="1" as="geometry" />
        </mxCell>
        <mxCell id="Xlu8h9oqPwn0RZzRxIoK-3" value="Parent" style="whiteSpace=wrap;html=1;treeFolding=1;treeMoving=1;newEdgeStyle={&quot;edgeStyle&quot;:&quot;elbowEdgeStyle&quot;,&quot;startArrow&quot;:&quot;none&quot;,&quot;endArrow&quot;:&quot;none&quot;};" vertex="1" parent="Xlu8h9oqPwn0RZzRxIoK-1">
          <mxGeometry x="211" y="60" width="120" height="40" as="geometry" />
        </mxCell>
        <mxCell id="Xlu8h9oqPwn0RZzRxIoK-4" value="Child" style="whiteSpace=wrap;html=1;treeFolding=1;treeMoving=1;newEdgeStyle={&quot;edgeStyle&quot;:&quot;elbowEdgeStyle&quot;,&quot;startArrow&quot;:&quot;none&quot;,&quot;endArrow&quot;:&quot;none&quot;};" vertex="1" parent="Xlu8h9oqPwn0RZzRxIoK-1">
          <mxGeometry x="81" y="150" width="120" height="40" as="geometry" />
        </mxCell>
        <mxCell id="Xlu8h9oqPwn0RZzRxIoK-7" value="" style="edgeStyle=elbowEdgeStyle;rounded=0;orthogonalLoop=1;jettySize=auto;html=1;elbow=vertical;startArrow=none;endArrow=none;" edge="1" source="Xlu8h9oqPwn0RZzRxIoK-3" target="Xlu8h9oqPwn0RZzRxIoK-8" parent="Xlu8h9oqPwn0RZzRxIoK-1">
          <mxGeometry relative="1" as="geometry" />
        </mxCell>
        <mxCell id="Xlu8h9oqPwn0RZzRxIoK-8" value="Parent" style="whiteSpace=wrap;html=1;treeFolding=1;treeMoving=1;newEdgeStyle={&quot;edgeStyle&quot;:&quot;elbowEdgeStyle&quot;,&quot;startArrow&quot;:&quot;none&quot;,&quot;endArrow&quot;:&quot;none&quot;};" vertex="1" parent="Xlu8h9oqPwn0RZzRxIoK-1">
          <mxGeometry x="211" y="150" width="120" height="40" as="geometry" />
        </mxCell>
        <mxCell id="Xlu8h9oqPwn0RZzRxIoK-9" value="" style="edgeStyle=elbowEdgeStyle;rounded=0;orthogonalLoop=1;jettySize=auto;html=1;elbow=vertical;startArrow=none;endArrow=none;" edge="1" source="Xlu8h9oqPwn0RZzRxIoK-3" target="Xlu8h9oqPwn0RZzRxIoK-10" parent="Xlu8h9oqPwn0RZzRxIoK-1">
          <mxGeometry relative="1" as="geometry" />
        </mxCell>
        <mxCell id="Xlu8h9oqPwn0RZzRxIoK-10" value="Parent" style="whiteSpace=wrap;html=1;treeFolding=1;treeMoving=1;newEdgeStyle={&quot;edgeStyle&quot;:&quot;elbowEdgeStyle&quot;,&quot;startArrow&quot;:&quot;none&quot;,&quot;endArrow&quot;:&quot;none&quot;};" vertex="1" parent="Xlu8h9oqPwn0RZzRxIoK-1">
          <mxGeometry x="341" y="150" width="120" height="40" as="geometry" />
        </mxCell>
      </root>
    </mxGraphModel>
  </diagram>
</mxfile>
